<svg xmlns="http://www.w3.org/2000/svg" width="265.701" height="17.732" viewBox="0 0 265.701 17.732"><path d="M-116.684-12.245h-16.709v-5.487h16.709ZM-122.76,0h-5.456V-9.548h5.456Zm29.512,0h-5.535l-2.666-5.456h-5.543L-109.676,0h-5.458l4.681-9.517H-97.96ZM-106.33-17.732l-2.79,5.487h9.8l-2.79-5.487ZM-85.1-12.245h-5.456v-5.487H-85.1ZM-73.873,0H-90.551V-9.548H-85.1v5.487h11.222Zm8.215-12.245h-5.456v-5.487h5.456Zm0,12.245h-5.456V-9.548h5.456Zm24.583-12.245h-5.456q-.031-1.364-1.116-1.364h-9.8v1.364H-62.9v-5.487h17.918a5.248,5.248,0,0,1,2.542.589,2.288,2.288,0,0,1,1.364,2.077Zm0,8.866a3.008,3.008,0,0,1-1.1,2.511A4.392,4.392,0,0,1-44.981,0H-62.9V-9.548h17.918a4.226,4.226,0,0,1,2.774.93,3.081,3.081,0,0,1,1.132,2.511Zm-5.952-1.66q0-.789-1.116-.789h-9.3v1.767h9.3Q-47.027-4.061-47.027-5.039ZM-.961-12.245H-6.417v-5.487H-.961Zm-16.368,0h-5.456v-5.487h5.456ZM-.961,0H-6.417V-5.456H-17.329V0h-5.456V-9.517H-.961ZM26.691-12.245H21.235v-5.487h5.456Zm-19.437,0H1.8v-5.487H7.254ZM26.691-2.728q0,1.984-3.441,2.666A3.172,3.172,0,0,1,22.785,0H5.7A4.681,4.681,0,0,1,4.681-.186Q1.8-.9,1.8-2.728v-6.82H7.254v4.084a1.252,1.252,0,0,0,.992,1.278l.372.124H19.592a1.743,1.743,0,0,0,1.085-.452,1.254,1.254,0,0,0,.558-.951V-9.548h5.456Zm24.924-9.517H45.6q-.062-1.364-1.147-1.364H36.27q-1.24,0-1.364,1.364H29.45v-2.821a2.225,2.225,0,0,1,1.364-2.046,5.145,5.145,0,0,1,2.542-.62H47.709a5.363,5.363,0,0,1,2.542.589,2.288,2.288,0,0,1,1.364,2.077Zm0,9.517q0,1.984-3.441,2.666A3.172,3.172,0,0,1,47.709,0H29.45V-4.061H44.516q1.085,0,1.085-.7,0-.729-1.085-.729H33.356A3.667,3.667,0,0,1,30.6-6.541,3.765,3.765,0,0,1,29.6-8.494a8.491,8.491,0,0,1-.155-1.054H47.709a4.658,4.658,0,0,1,2.666.713,2.635,2.635,0,0,1,1.24,2.356Zm24.738-9.517H70.339q-.062-1.364-1.147-1.364H61.008q-1.24,0-1.364,1.364H54.188v-2.821a2.225,2.225,0,0,1,1.364-2.046,5.145,5.145,0,0,1,2.542-.62H72.447a5.363,5.363,0,0,1,2.542.589,2.288,2.288,0,0,1,1.364,2.077Zm0,9.517q0,1.984-3.441,2.666A3.172,3.172,0,0,1,72.447,0H54.188V-4.061H69.254q1.085,0,1.085-.7,0-.729-1.085-.729H58.094a3.667,3.667,0,0,1-2.759-1.054,3.765,3.765,0,0,1-.992-1.953,8.492,8.492,0,0,1-.155-1.054H72.447a4.658,4.658,0,0,1,2.666.713,2.635,2.635,0,0,1,1.24,2.356ZM100.812,0H95.277L92.611-5.456H87.067L84.384,0H78.926l4.681-9.517H96.1ZM87.73-17.732l-2.79,5.487h9.8l-2.79-5.487Zm21.235,5.487h-5.456v-5.487h5.456Zm0,12.245h-5.456V-9.548h5.456Zm23.343-12.245h-5.456v-5.487h5.456Zm-9.415,0H111.724v-5.487h7.837ZM132.308,0h-8.8l-5.425-9.548h6.386L126.852-6.2V-9.548h5.456ZM117.18,0h-5.456V-9.548h5.456Z" transform="translate(133.393 17.732)" opacity="0.8"/></svg>